<?xml version="1.0" encoding="UTF-8"?>
<!DOCTYPE svg PUBLIC "-//W3C//DTD SVG 1.1//EN" "http://www.w3.org/Graphics/SVG/1.1/DTD/svg11.dtd">
<svg xmlns="http://www.w3.org/2000/svg" version="1.1" width="1080px" height="1080px" style="shape-rendering:geometricPrecision; text-rendering:geometricPrecision; image-rendering:optimizeQuality; fill-rule:evenodd; clip-rule:evenodd" xmlns:xlink="http://www.w3.org/1999/xlink">
<g><path style="opacity:1" fill="#f7f8f7" d="M 357.5,286.5 C 478.834,286.333 600.167,286.5 721.5,287C 760.333,295.167 783.833,318.667 792,357.5C 792.667,478.833 792.667,600.167 792,721.5C 783.833,760.333 760.333,783.833 721.5,792C 600.167,792.667 478.833,792.667 357.5,792C 318.667,783.833 295.167,760.333 287,721.5C 286.333,600.167 286.333,478.833 287,357.5C 295.347,318.653 318.847,294.987 357.5,286.5 Z M 424.5,396.5 C 478.183,396.069 531.849,396.569 585.5,398C 641.817,407.337 663.317,439.837 650,495.5C 645.399,506.096 638.566,514.929 629.5,522C 623.797,525.514 618.131,529.014 612.5,532.5C 643.069,540.571 660.903,560.238 666,591.5C 673.069,634.88 656.569,665.047 616.5,682C 600.306,687.588 583.639,690.588 566.5,691C 519.168,691.5 471.835,691.667 424.5,691.5C 424.5,593.167 424.5,494.833 424.5,396.5 Z"/></g>
<g><path style="opacity:1" fill="#f7f8f7" d="M 475.5,438.5 C 509.541,438.035 543.541,438.535 577.5,440C 596.446,445.688 605.113,458.521 603.5,478.5C 603.608,502.228 591.941,516.061 568.5,520C 537.502,520.5 506.502,520.667 475.5,520.5C 475.5,493.167 475.5,465.833 475.5,438.5 Z"/></g>
<g><path style="opacity:1" fill="#f7f8f7" d="M 475.5,556.5 C 507.502,556.333 539.502,556.5 571.5,557C 607.474,560.721 622.308,580.554 616,616.5C 611.261,634.972 599.428,645.805 580.5,649C 545.502,649.5 510.502,649.667 475.5,649.5C 475.5,618.5 475.5,587.5 475.5,556.5 Z"/></g>
</svg>
