<?xml version="1.0" encoding="UTF-8"?>
<!DOCTYPE svg PUBLIC "-//W3C//DTD SVG 1.1//EN" "http://www.w3.org/Graphics/SVG/1.1/DTD/svg11.dtd">
<svg xmlns="http://www.w3.org/2000/svg" version="1.1" width="1080px" height="1080px" style="shape-rendering:geometricPrecision; text-rendering:geometricPrecision; image-rendering:optimizeQuality; fill-rule:evenodd; clip-rule:evenodd" xmlns:xlink="http://www.w3.org/1999/xlink">
<g><path style="opacity:1" fill="#f7f8f7" d="M 315.5,288.5 C 465.168,288.167 614.835,288.5 764.5,289.5C 750.408,440.843 736.075,592.176 721.5,743.5C 661.069,760.066 600.569,776.4 540,792.5C 479.431,776.4 418.931,760.066 358.5,743.5C 343.866,591.862 329.533,440.195 315.5,288.5 Z M 398.5,381.5 C 491.833,381.5 585.167,381.5 678.5,381.5C 676.896,399.545 674.896,417.545 672.5,435.5C 628.091,454.578 583.758,473.744 539.5,493C 582.499,493.5 625.499,493.667 668.5,493.5C 663.381,550.147 658.381,606.813 653.5,663.5C 615.517,673.995 577.683,684.995 540,696.5C 501.991,684.664 463.824,673.331 425.5,662.5C 423.222,634.162 420.888,605.829 418.5,577.5C 437.167,577.5 455.833,577.5 474.5,577.5C 475.555,592.496 476.555,607.496 477.5,622.5C 498.225,627.181 518.891,632.181 539.5,637.5C 560.55,631.654 581.55,625.654 602.5,619.5C 604.947,595.564 606.614,571.564 607.5,547.5C 543.178,546.533 478.845,546.199 414.5,546.5C 413.36,530.323 412.027,514.156 410.5,498C 410.833,496.5 411.167,495 411.5,493.5C 456.979,474.591 502.312,455.425 547.5,436C 500.168,435.5 452.835,435.333 405.5,435.5C 403.167,417.5 400.833,399.5 398.5,381.5 Z"/></g>
</svg>
