<?xml version="1.0" encoding="UTF-8"?>
<!DOCTYPE svg PUBLIC "-//W3C//DTD SVG 1.1//EN" "http://www.w3.org/Graphics/SVG/1.1/DTD/svg11.dtd">
<svg xmlns="http://www.w3.org/2000/svg" version="1.1" width="1080px" height="1080px" style="shape-rendering:geometricPrecision; text-rendering:geometricPrecision; image-rendering:optimizeQuality; fill-rule:evenodd; clip-rule:evenodd" xmlns:xlink="http://www.w3.org/1999/xlink">
<g><path style="opacity:0.955" fill="#f7f8f7" d="M 442.5,286.5 C 507.168,286.333 571.834,286.5 636.5,287C 643.071,287.781 649.571,288.948 656,290.5C 663.957,293.314 671.457,296.981 678.5,301.5C 683.614,306.005 688.948,310.338 694.5,314.5C 700.328,320.301 705.328,326.801 709.5,334C 709.043,334.414 708.709,334.914 708.5,335.5C 710.753,338.342 712.753,341.342 714.5,344.5C 714.291,345.086 713.957,345.586 713.5,346C 716.155,350.3 718.155,354.966 719.5,360C 719.49,374.498 719.49,388.998 719.5,403.5C 718.273,408.736 716.273,413.57 713.5,418C 713.957,418.414 714.291,418.914 714.5,419.5C 711.609,426.491 707.609,433.157 702.5,439.5C 696.679,445.155 691.013,450.988 685.5,457C 683.292,458.602 680.959,459.936 678.5,461C 682.385,462.755 686.051,464.922 689.5,467.5C 692.833,470.833 696.167,474.167 699.5,477.5C 700.281,478.729 700.781,480.062 701,481.5C 703.951,484.572 706.784,487.739 709.5,491C 709.043,491.414 708.709,491.914 708.5,492.5C 710.806,495.292 712.806,498.292 714.5,501.5C 714.392,502.442 714.059,503.275 713.5,504C 714.859,505.204 715.859,506.704 716.5,508.5C 717.5,512 718.5,515.5 719.5,519C 719.481,533.005 719.481,547.005 719.5,561C 709.272,598.561 684.605,622.727 645.5,633.5C 629.335,634.825 613.168,634.825 597,633.5C 582.592,629.82 569.758,623.486 558.5,614.5C 557.667,645.828 557.167,677.161 557,708.5C 555.904,712.024 555.071,715.69 554.5,719.5C 553.92,721.637 552.92,723.47 551.5,725C 552.059,725.725 552.392,726.558 552.5,727.5C 551.245,731.491 549.245,734.991 546.5,738C 546.957,738.414 547.291,738.914 547.5,739.5C 543.714,746.09 539.214,752.09 534,757.5C 533.781,758.938 533.281,760.271 532.5,761.5C 525.869,766.624 519.536,771.958 513.5,777.5C 506.221,782.211 498.388,785.878 490,788.5C 439.206,801.262 399.04,786.762 369.5,745C 369.957,744.586 370.291,744.086 370.5,743.5C 368.247,740.658 366.247,737.658 364.5,734.5C 364.709,733.914 365.043,733.414 365.5,733C 362.845,728.7 360.845,724.034 359.5,719C 359.51,704.502 359.51,690.002 359.5,675.5C 360.727,670.264 362.727,665.43 365.5,661C 365.043,660.586 364.709,660.086 364.5,659.5C 367.391,652.509 371.391,645.843 376.5,639.5C 382.321,633.845 387.987,628.012 393.5,622C 395.708,620.398 398.041,619.064 400.5,618C 396.615,616.245 392.949,614.078 389.5,611.5C 386.167,608.167 382.833,604.833 379.5,601.5C 378.719,600.271 378.219,598.938 378,597.5C 375.049,594.428 372.216,591.261 369.5,588C 369.957,587.586 370.291,587.086 370.5,586.5C 368.194,583.708 366.194,580.708 364.5,577.5C 364.608,576.558 364.941,575.725 365.5,575C 364.141,573.796 363.141,572.296 362.5,570.5C 361.5,567 360.5,563.5 359.5,560C 359.5,546.333 359.5,532.667 359.5,519C 360.5,515.5 361.5,512 362.5,508.5C 363.141,506.704 364.141,505.204 365.5,504C 364.941,503.275 364.608,502.442 364.5,501.5C 366.194,498.292 368.194,495.292 370.5,492.5C 370.291,491.914 369.957,491.414 369.5,491C 372.216,487.739 375.049,484.572 378,481.5C 378.219,480.062 378.719,478.729 379.5,477.5C 382.833,474.167 386.167,470.833 389.5,467.5C 392.949,464.922 396.615,462.755 400.5,461C 398.041,459.936 395.708,458.602 393.5,457C 387.987,450.988 382.321,445.155 376.5,439.5C 371.391,433.157 367.391,426.491 364.5,419.5C 364.709,418.914 365.043,418.414 365.5,418C 362.727,413.57 360.727,408.736 359.5,403.5C 359.51,388.998 359.51,374.498 359.5,360C 363.425,346.986 369.092,334.819 376.5,323.5C 381.816,316.851 387.816,310.851 394.5,305.5C 400.011,302.095 405.511,298.761 411,295.5C 415.338,294.632 419.338,292.965 423,290.5C 429.621,289.077 436.121,287.743 442.5,286.5 Z M 452.5,319.5 C 475.5,319.5 498.5,319.5 521.5,319.5C 521.5,361.167 521.5,402.833 521.5,444.5C 499.157,444.833 476.823,444.5 454.5,443.5C 425.833,440.652 406.333,426.319 396,400.5C 391.98,384.742 393.147,369.408 399.5,354.5C 401.762,353.655 402.429,352.322 401.5,350.5C 414.297,332.962 431.297,322.628 452.5,319.5 Z M 557.5,319.5 C 585.088,318.763 612.588,319.763 640,322.5C 660.347,329.368 674.514,342.368 682.5,361.5C 687.077,377.564 686.077,393.23 679.5,408.5C 678.5,409.5 677.5,410.5 676.5,411.5C 676.709,412.086 677.043,412.586 677.5,413C 673.046,418.79 668.213,424.29 663,429.5C 651.609,437.719 638.775,442.385 624.5,443.5C 602.177,444.5 579.843,444.833 557.5,444.5C 557.5,402.833 557.5,361.167 557.5,319.5 Z M 445.5,477.5 C 470.833,477.5 496.167,477.5 521.5,477.5C 521.5,518.833 521.5,560.167 521.5,601.5C 496.158,601.833 470.825,601.5 445.5,600.5C 430.448,596.341 417.781,589.341 407.5,579.5C 406.41,578.609 406.41,577.609 407.5,576.5C 405.208,575.21 403.208,573.543 401.5,571.5C 401.709,570.914 402.043,570.414 402.5,570C 398.16,564.99 395.493,559.156 394.5,552.5C 392.7,540.232 393.7,528.232 397.5,516.5C 399.061,513.863 400.728,511.363 402.5,509C 402.043,508.586 401.709,508.086 401.5,507.5C 403.208,505.457 405.208,503.79 407.5,502.5C 407.167,501.833 406.833,501.167 406.5,500.5C 413.612,493.715 422.112,487.715 432,482.5C 436.902,481.307 441.402,479.64 445.5,477.5 Z M 611.5,477.5 C 630.419,475.882 647.419,480.715 662.5,492C 662.167,492.333 661.833,492.667 661.5,493C 662.833,493.333 664.167,493.667 665.5,494C 667.182,496.218 669.182,498.051 671.5,499.5C 672.59,500.391 672.59,501.391 671.5,502.5C 673.792,503.79 675.792,505.457 677.5,507.5C 677.291,508.086 676.957,508.586 676.5,509C 680.84,514.01 683.507,519.844 684.5,526.5C 686.3,538.768 685.3,550.768 681.5,562.5C 679.939,565.137 678.272,567.637 676.5,570C 676.957,570.414 677.291,570.914 677.5,571.5C 675.792,573.543 673.792,575.21 671.5,576.5C 671.833,577.167 672.167,577.833 672.5,578.5C 662.065,588.925 649.065,596.258 633.5,600.5C 615.66,603.037 599.16,599.371 584,589.5C 555.038,565.809 549.704,537.476 568,504.5C 575.842,495.332 585.175,487.998 596,482.5C 600.697,480.784 605.531,479.617 610.5,479C 611.056,478.617 611.389,478.117 611.5,477.5 Z M 454.5,634.5 C 476.833,634.5 499.167,634.5 521.5,634.5C 521.667,658.169 521.5,681.836 521,705.5C 515.632,729.079 501.465,745.746 478.5,755.5C 471.311,756.67 464.145,758.003 457,759.5C 433.362,757.715 414.862,747.381 401.5,728.5C 401.709,727.914 402.043,727.414 402.5,727C 396.279,718.24 393.279,708.407 393.5,697.5C 393.541,688.03 395.541,679.03 399.5,670.5C 400.5,669.5 401.5,668.5 402.5,667.5C 402.291,666.914 401.957,666.414 401.5,666C 405.954,660.21 410.787,654.71 416,649.5C 421.903,645.622 428.236,642.288 435,639.5C 441.793,637.973 448.293,636.306 454.5,634.5 Z"/></g>
</svg>
