<?xml version="1.0" encoding="UTF-8"?>
<!DOCTYPE svg PUBLIC "-//W3C//DTD SVG 1.1//EN" "http://www.w3.org/Graphics/SVG/1.1/DTD/svg11.dtd">
<svg xmlns="http://www.w3.org/2000/svg" version="1.1" width="1080px" height="1080px" style="shape-rendering:geometricPrecision; text-rendering:geometricPrecision; image-rendering:optimizeQuality; fill-rule:evenodd; clip-rule:evenodd" xmlns:xlink="http://www.w3.org/1999/xlink">
<g><path style="opacity:1" fill="#f7f8f7" d="M 364.5,286.5 C 481.167,286.333 597.834,286.5 714.5,287C 718.612,288.779 721.778,291.612 724,295.5C 725.156,326.107 725.656,356.774 725.5,387.5C 725.333,417.167 725.167,446.833 725,476.5C 723.167,483 719,487.167 712.5,489C 669.167,489.333 625.833,489.667 582.5,490C 629,536.5 675.5,583 722,629.5C 729.094,643.57 725.26,653.07 710.5,658C 659.168,658.5 607.834,658.667 556.5,658.5C 556.667,699.501 556.5,740.501 556,781.5C 549.969,792.754 541.136,795.587 529.5,790C 471.667,732.167 413.833,674.333 356,616.5C 355.138,614.913 354.471,613.246 354,611.5C 353.333,563.5 353.333,515.5 354,467.5C 356.167,461.333 360.333,457.167 366.5,455C 409.833,454.667 453.167,454.333 496.5,454C 450,407.5 403.5,361 357,314.5C 350.48,302.58 352.98,293.247 364.5,286.5 Z"/></g>
</svg>
