<?xml version="1.0" encoding="UTF-8"?>
<!DOCTYPE svg PUBLIC "-//W3C//DTD SVG 1.1//EN" "http://www.w3.org/Graphics/SVG/1.1/DTD/svg11.dtd">
<svg xmlns="http://www.w3.org/2000/svg" version="1.1" width="1080px" height="1080px" style="shape-rendering:geometricPrecision; text-rendering:geometricPrecision; image-rendering:optimizeQuality; fill-rule:evenodd; clip-rule:evenodd" xmlns:xlink="http://www.w3.org/1999/xlink">
<g><path style="opacity:1" fill="#f7f8f7" d="M 531.5,286.5 C 562.178,285.225 589.178,294.392 612.5,314C 665.028,366.194 717.194,418.694 769,471.5C 792.695,502.998 798.695,537.664 787,575.5C 781.96,589.256 774.626,601.589 765,612.5C 712.806,665.028 660.306,717.194 607.5,769C 576.002,792.695 541.336,798.695 503.5,787C 489.744,781.96 477.411,774.626 466.5,765C 413.972,712.806 361.806,660.306 310,607.5C 283.176,570.584 279.176,531.251 298,489.5C 301.418,483.663 305.084,477.996 309,472.5C 352.96,428.374 397.126,384.374 441.5,340.5C 461.82,360.319 481.986,380.319 502,400.5C 497.205,420.263 503.538,435.596 521,446.5C 521.667,505.5 521.667,564.5 521,623.5C 499.066,638.641 494.399,657.974 507,681.5C 517.786,695.433 531.953,700.933 549.5,698C 575.552,688.394 585.052,670.227 578,643.5C 573.722,634.222 567.055,627.222 558,622.5C 557.167,567.164 557.333,511.83 558.5,456.5C 582.653,480.153 606.653,503.986 630.5,528C 624.661,551.655 632.994,568.321 655.5,578C 679.962,583.352 697.129,574.519 707,551.5C 711.776,521.399 699.109,503.732 669,498.5C 664.455,499.506 659.955,500.339 655.5,501C 629.695,476.195 604.195,451.028 579,425.5C 584.694,404.583 578.527,388.083 560.5,376C 549.812,371.23 538.812,370.23 527.5,373C 507.833,353.333 488.167,333.667 468.5,314C 486.601,298.135 507.601,288.968 531.5,286.5 Z"/></g>
</svg>
