<?xml version="1.0" encoding="UTF-8"?>
<!DOCTYPE svg PUBLIC "-//W3C//DTD SVG 1.1//EN" "http://www.w3.org/Graphics/SVG/1.1/DTD/svg11.dtd">
<svg xmlns="http://www.w3.org/2000/svg" version="1.1" width="1080px" height="1080px" style="shape-rendering:geometricPrecision; text-rendering:geometricPrecision; image-rendering:optimizeQuality; fill-rule:evenodd; clip-rule:evenodd" xmlns:xlink="http://www.w3.org/1999/xlink">
<g><path style="opacity:1" fill="#f7f8f7" d="M 517.5,286.5 C 621.783,282.218 701.617,323.885 757,411.5C 797.375,484.938 803.708,561.271 776,640.5C 747.562,711.271 698.062,761.105 627.5,790C 620.113,793.231 612.78,793.231 605.5,790C 603.438,787.932 602.272,785.432 602,782.5C 601.256,759.825 601.422,737.158 602.5,714.5C 603.168,697.656 599.334,681.989 591,667.5C 588.824,665.125 586.657,662.792 584.5,660.5C 661.083,653.255 699.75,611.255 700.5,534.5C 700.719,507.148 692.053,483.148 674.5,462.5C 681.469,439.633 680.803,416.967 672.5,394.5C 660.625,393.802 649.291,395.968 638.5,401C 625.857,406.833 613.857,413.667 602.5,421.5C 560.5,409.5 518.5,409.5 476.5,421.5C 459.764,409.466 441.431,400.633 421.5,395C 416.511,394.501 411.511,394.334 406.5,394.5C 400.139,412.384 398.306,430.717 401,449.5C 401.933,453.733 403.1,457.9 404.5,462C 382.199,490.035 374.032,521.868 380,557.5C 385.768,609.59 413.934,642.09 464.5,655C 474.128,657.049 483.795,658.882 493.5,660.5C 484.661,670.514 479.328,682.18 477.5,695.5C 457.297,705.59 437.631,704.757 418.5,693C 410.137,685.309 403.303,676.476 398,666.5C 389.286,655.447 377.953,649.114 364,647.5C 359.672,647.27 356.172,648.77 353.5,652C 357.598,658.099 362.931,662.766 369.5,666C 375.428,671.924 380.594,678.424 385,685.5C 388.743,693.986 392.743,702.319 397,710.5C 410.545,726.267 427.878,734.267 449,734.5C 457.955,733.952 466.788,732.619 475.5,730.5C 476.314,732.766 476.814,735.1 477,737.5C 477.667,752.833 477.667,768.167 477,783.5C 475.004,790.091 470.504,793.091 463.5,792.5C 459.307,792.602 455.307,791.769 451.5,790C 371.226,757.059 319.06,698.892 295,615.5C 273.179,524.564 291.846,443.231 351,371.5C 395.679,322.077 451.179,293.744 517.5,286.5 Z"/></g>
</svg>
