<?xml version="1.0" encoding="UTF-8"?>
<!DOCTYPE svg PUBLIC "-//W3C//DTD SVG 1.1//EN" "http://www.w3.org/Graphics/SVG/1.1/DTD/svg11.dtd">
<svg xmlns="http://www.w3.org/2000/svg" version="1.1" width="1080px" height="1080px" style="shape-rendering:geometricPrecision; text-rendering:geometricPrecision; image-rendering:optimizeQuality; fill-rule:evenodd; clip-rule:evenodd" xmlns:xlink="http://www.w3.org/1999/xlink">
<g><path style="opacity:1" fill="#f7f8f7" d="M 315.5,286.5 C 464.167,286.5 612.833,286.5 761.5,286.5C 748.692,438.227 735.192,589.894 721,741.5C 660.335,759.042 599.501,776.042 538.5,792.5C 478.427,776.148 418.427,759.481 358.5,742.5C 357.353,742.182 356.519,741.516 356,740.5C 342.589,589.148 329.089,437.814 315.5,286.5 Z M 399.5,379.5 C 492.167,379.5 584.833,379.5 677.5,379.5C 676.167,397.833 674.833,416.167 673.5,434.5C 602.167,434.5 530.833,434.5 459.5,434.5C 461.386,453.804 463.053,473.137 464.5,492.5C 532.503,492.167 600.503,492.5 668.5,493.5C 663.032,550.15 657.532,606.816 652,663.5C 613.956,674.011 575.956,684.678 538,695.5C 500.595,684.773 463.095,674.273 425.5,664C 424.874,663.25 424.374,662.416 424,661.5C 421.705,633.171 419.539,604.838 417.5,576.5C 435.5,576.5 453.5,576.5 471.5,576.5C 472.953,591.487 474.287,606.487 475.5,621.5C 496.383,626.596 517.216,631.929 538,637.5C 558.931,632.392 579.764,626.892 600.5,621C 603.46,596.606 605.794,572.106 607.5,547.5C 543.167,547.5 478.833,547.5 414.5,547.5C 409.39,491.512 404.39,435.512 399.5,379.5 Z"/></g>
</svg>
