<?xml version="1.0" encoding="UTF-8"?>
<!DOCTYPE svg PUBLIC "-//W3C//DTD SVG 1.1//EN" "http://www.w3.org/Graphics/SVG/1.1/DTD/svg11.dtd">
<svg xmlns="http://www.w3.org/2000/svg" version="1.1" width="1080px" height="1080px" style="shape-rendering:geometricPrecision; text-rendering:geometricPrecision; image-rendering:optimizeQuality; fill-rule:evenodd; clip-rule:evenodd" xmlns:xlink="http://www.w3.org/1999/xlink">
<g><path style="opacity:1" fill="#f7f8f7" d="M 286.5,286.5 C 455.167,286.5 623.833,286.5 792.5,286.5C 792.5,455.167 792.5,623.833 792.5,792.5C 623.833,792.5 455.167,792.5 286.5,792.5C 286.5,623.833 286.5,455.167 286.5,286.5 Z M 663.5,516.5 C 696.44,513.636 721.44,526.136 738.5,554C 726.735,561.631 714.901,569.131 703,576.5C 691.459,557.542 675.626,552.708 655.5,562C 647.599,570.948 646.432,580.781 652,591.5C 654.537,594.372 657.37,596.872 660.5,599C 678.954,607.394 697.288,616.06 715.5,625C 750.811,646.933 760.978,677.433 746,716.5C 737.916,730.245 726.416,740.078 711.5,746C 683.466,755.367 655.8,754.367 628.5,743C 611.272,734.439 597.939,721.772 588.5,705C 600.917,697.374 613.417,689.874 626,682.5C 643.877,711.01 668.043,718.176 698.5,704C 709.594,690.769 708.594,678.436 695.5,667C 677.318,658.077 658.985,649.41 640.5,641C 607.165,621.346 595.998,592.846 607,555.5C 618.74,532.214 637.573,519.214 663.5,516.5 Z M 515.5,519.5 C 530.833,519.5 546.167,519.5 561.5,519.5C 561.667,576.834 561.5,634.168 561,691.5C 555.481,732.007 532.148,752.34 491,752.5C 458.86,752.307 435.36,738.141 420.5,710C 432.702,702.301 445.035,694.801 457.5,687.5C 461.901,694.077 466.901,700.243 472.5,706C 480.616,710.29 489.283,711.623 498.5,710C 507.214,707.287 512.381,701.454 514,692.5C 514.333,688.833 514.667,685.167 515,681.5C 515.5,627.501 515.667,573.501 515.5,519.5 Z"/></g>
</svg>
