<?xml version="1.0" encoding="UTF-8"?>
<!DOCTYPE svg PUBLIC "-//W3C//DTD SVG 1.1//EN" "http://www.w3.org/Graphics/SVG/1.1/DTD/svg11.dtd">
<svg xmlns="http://www.w3.org/2000/svg" version="1.1" width="1080px" height="1080px" style="shape-rendering:geometricPrecision; text-rendering:geometricPrecision; image-rendering:optimizeQuality; fill-rule:evenodd; clip-rule:evenodd" xmlns:xlink="http://www.w3.org/1999/xlink">
<g><path style="opacity:0.004" fill="#666666" d="M 307.5,172.5 C 461.999,171.334 616.666,171.167 771.5,172C 616.834,172.5 462.167,172.667 307.5,172.5 Z"/></g>
<g><path style="opacity:0.004" fill="#666666" d="M 171.5,307.5 C 172.666,461.999 172.833,616.666 172,771.5C 171.5,616.834 171.333,462.167 171.5,307.5 Z"/></g>
<g><path style="opacity:0.004" fill="#666666" d="M 906.5,307.5 C 907.666,461.999 907.833,616.666 907,771.5C 906.5,616.834 906.333,462.167 906.5,307.5 Z"/></g>
<g><path style="opacity:1" fill="#f5f5f5" d="M 515.5,691.5 C 515.473,693.199 514.806,694.533 513.5,695.5C 502.29,686.117 490.957,676.951 479.5,668C 478.107,666.829 477.273,665.329 477,663.5C 473.333,661.833 470.667,659.167 469,655.5C 464.729,653.976 462.062,650.976 461,646.5C 459.915,645.707 458.748,645.04 457.5,644.5C 457.024,641.881 455.691,639.881 453.5,638.5C 454.609,636.786 453.942,636.119 451.5,636.5C 449.721,631.962 448.054,627.295 446.5,622.5C 445.675,621.614 444.675,621.281 443.5,621.5C 443.657,620.127 443.49,618.793 443,617.5C 442.801,619.402 441.967,620.902 440.5,622C 441.122,623.569 441.456,625.236 441.5,627C 440.45,635.811 438.284,644.311 435,652.5C 432.885,656.45 429.719,659.117 425.5,660.5C 422.833,660.833 420.167,661.167 417.5,661.5C 412.296,661.229 407.296,660.229 402.5,658.5C 402.649,657.448 402.483,656.448 402,655.5C 397.669,652.726 394.335,649.06 392,644.5C 390.989,643.663 389.822,643.33 388.5,643.5C 385.976,638.563 384.309,633.23 383.5,627.5C 382.5,627.5 381.5,627.5 380.5,627.5C 378.2,618.272 376.534,608.938 375.5,599.5C 374.5,599.5 373.5,599.5 372.5,599.5C 371.171,582.544 371.171,565.877 372.5,549.5C 373.5,549.5 374.5,549.5 375.5,549.5C 376.973,539.331 378.64,529.164 380.5,519C 382.837,514.871 384.503,510.371 385.5,505.5C 384.667,503.833 383.833,502.167 383,500.5C 378.814,497.696 375.314,494.363 372.5,490.5C 372.709,489.914 373.043,489.414 373.5,489C 370.522,483.529 367.189,478.196 363.5,473C 362.327,468.505 361.327,464.005 360.5,459.5C 359.5,459.5 358.5,459.5 357.5,459.5C 356.043,452.045 354.376,444.711 352.5,437.5C 350.058,437.646 349.391,436.813 350.5,435C 348.076,429.256 346.076,423.256 344.5,417C 343.291,413.473 341.457,409.973 339,406.5C 333.868,400.138 328.368,393.471 322.5,386.5C 321.846,384.885 321.346,383.218 321,381.5C 319.667,380.833 318.333,380.167 317,379.5C 315.667,376.833 314.333,374.167 313,371.5C 311.989,370.663 310.822,370.33 309.5,370.5C 308.04,363.352 306.706,356.185 305.5,349C 305.653,343.271 306.82,337.771 309,332.5C 312.092,330.435 314.592,327.769 316.5,324.5C 320.506,322.118 324.839,321.118 329.5,321.5C 329.5,320.5 329.5,319.5 329.5,318.5C 333.5,318.5 337.5,318.5 341.5,318.5C 341.5,319.5 341.5,320.5 341.5,321.5C 346.215,321.506 350.882,322.006 355.5,323C 359.25,325.043 363.25,326.209 367.5,326.5C 367.5,327.5 367.5,328.5 367.5,329.5C 374.994,330.333 381.494,333.333 387,338.5C 389.437,339.8 391.937,340.8 394.5,341.5C 394.33,342.822 394.663,343.989 395.5,345C 398.402,347.48 401.736,349.313 405.5,350.5C 405.291,351.086 404.957,351.586 404.5,352C 420.777,351.702 436.777,353.535 452.5,357.5C 452.5,358.5 452.5,359.5 452.5,360.5C 461.322,360.619 468.988,363.619 475.5,369.5C 477.795,370.432 480.129,371.265 482.5,372C 483.071,373.205 483.738,374.372 484.5,375.5C 488.308,377.645 492.308,379.311 496.5,380.5C 497.528,383.714 499.862,385.548 503.5,386C 511.346,392.396 519.346,398.563 527.5,404.5C 529.259,406.882 531.259,409.048 533.5,411C 536.333,411.167 537.833,412.667 538,415.5C 541.833,418 545,421.167 547.5,425C 548.5,425.333 549.5,425.667 550.5,426C 551.398,428.981 553.398,431.647 556.5,434C 557.766,434.309 558.933,434.809 560,435.5C 560.318,437.061 561.151,438.228 562.5,439C 562.043,439.414 561.709,439.914 561.5,440.5C 566.104,442.321 568.937,445.654 570,450.5C 573.07,451.296 574.737,453.296 575,456.5C 580.092,460.873 584.092,466.54 587,473.5C 588.011,474.337 589.178,474.67 590.5,474.5C 590.343,475.873 590.51,477.207 591,478.5C 592.778,480.945 594.111,483.611 595,486.5C 596.067,487.191 597.234,487.691 598.5,488C 598.167,488.333 597.833,488.667 597.5,489C 600.6,495.605 603.933,502.105 607.5,508.5C 607.392,509.442 607.059,510.275 606.5,511C 608.429,513.425 609.429,516.258 609.5,519.5C 610.5,519.5 611.5,519.5 612.5,519.5C 612.652,523.785 613.985,527.618 616.5,531C 616.355,531.772 616.022,532.439 615.5,533C 616.77,533.9 617.77,535.066 618.5,536.5C 621.496,545.325 625.496,553.658 630.5,561.5C 631.488,564.782 632.154,568.115 632.5,571.5C 633.675,571.281 634.675,571.614 635.5,572.5C 637.153,575.806 638.82,579.139 640.5,582.5C 641.325,583.386 642.325,583.719 643.5,583.5C 643.859,585.766 643.192,587.599 641.5,589C 642.624,589.249 643.624,589.749 644.5,590.5C 645.243,592.638 645.91,594.804 646.5,597C 649.081,600.294 651.748,603.461 654.5,606.5C 667.761,611.447 680.761,616.947 693.5,623C 694.973,623.71 695.64,624.876 695.5,626.5C 700.104,627.703 704.437,629.37 708.5,631.5C 708.33,632.822 708.663,633.989 709.5,635C 711.615,635.557 713.615,636.391 715.5,637.5C 722.606,642.436 729.272,647.936 735.5,654C 736.793,654.49 738.127,654.657 739.5,654.5C 739.297,656.39 739.963,657.89 741.5,659C 743.503,661.002 745.836,662.502 748.5,663.5C 751.413,666.65 754.413,669.817 757.5,673C 758.448,673.483 759.448,673.649 760.5,673.5C 760.67,674.822 760.337,675.989 759.5,677C 760.448,677.483 761.448,677.649 762.5,677.5C 762.36,679.124 763.027,680.29 764.5,681C 764.167,681.333 763.833,681.667 763.5,682C 769.091,686.507 768.758,690.34 762.5,693.5C 758.197,694.428 753.864,695.094 749.5,695.5C 749.5,696.5 749.5,697.5 749.5,698.5C 735.628,698.694 721.962,700.361 708.5,703.5C 708.5,704.5 708.5,705.5 708.5,706.5C 705.753,706.187 703.086,706.52 700.5,707.5C 702.636,708.472 703.803,710.139 704,712.5C 706.414,714.189 708.914,715.689 711.5,717C 712.167,718 712.833,719 713.5,720C 717.764,722.123 722.097,723.957 726.5,725.5C 726.433,728.766 728.099,730.266 731.5,730C 735.178,731.726 738.178,734.226 740.5,737.5C 742.662,739.02 744.995,740.02 747.5,740.5C 747.351,741.552 747.517,742.552 748,743.5C 754.426,747.609 759.593,752.942 763.5,759.5C 771.349,765.748 777.682,773.248 782.5,782C 782.355,782.772 782.022,783.439 781.5,784C 784.049,786.155 783.549,787.655 780,788.5C 776.797,787.376 773.964,785.709 771.5,783.5C 770.96,782.252 770.293,781.085 769.5,780C 765.108,778.134 761.441,775.3 758.5,771.5C 752.996,768.781 747.663,765.614 742.5,762C 740.187,761.338 737.854,760.838 735.5,760.5C 735.5,759.5 735.5,758.5 735.5,757.5C 730.21,756.708 725.21,755.042 720.5,752.5C 719.614,751.675 719.281,750.675 719.5,749.5C 715.506,748.391 711.506,747.058 707.5,745.5C 701.073,741.244 695.073,736.41 689.5,731C 687.975,729.991 686.308,729.491 684.5,729.5C 683.167,726.833 681.833,724.167 680.5,721.5C 679.5,721.5 678.5,721.5 677.5,721.5C 675.955,717.408 674.122,713.408 672,709.5C 670.989,708.663 669.822,708.33 668.5,708.5C 667.451,703.869 666.951,699.202 667,694.5C 671.059,690.772 675.893,689.105 681.5,689.5C 681.5,688.5 681.5,687.5 681.5,686.5C 700.465,681.88 719.798,679.38 739.5,679C 733.869,673.846 727.536,669.679 720.5,666.5C 719.614,665.675 719.281,664.675 719.5,663.5C 716.372,662.844 713.705,661.344 711.5,659C 710.207,658.51 708.873,658.343 707.5,658.5C 707.703,656.61 707.037,655.11 705.5,654C 701.102,653.179 697.769,650.846 695.5,647C 691.785,645.705 688.118,644.538 684.5,643.5C 684.5,642.5 684.5,641.5 684.5,640.5C 677.419,637.897 670.085,636.23 662.5,635.5C 662.5,634.5 662.5,633.5 662.5,632.5C 650.82,631.241 640.486,626.908 631.5,619.5C 629.333,616.357 627.666,613.024 626.5,609.5C 625.325,609.719 624.325,609.386 623.5,608.5C 620.867,601.901 617.701,595.568 614,589.5C 614.037,585.849 612.871,582.683 610.5,580C 610.645,579.228 610.978,578.561 611.5,578C 609.114,577.716 608.448,576.716 609.5,575C 606.015,570.854 604.015,566.021 603.5,560.5C 602.325,560.719 601.325,560.386 600.5,559.5C 597.983,553.995 595.983,548.328 594.5,542.5C 593.5,542.5 592.5,542.5 591.5,542.5C 590.35,535.974 588.683,529.64 586.5,523.5C 585.5,523.5 584.5,523.5 583.5,523.5C 583.33,522.178 583.663,521.011 584.5,520C 582.314,516.139 580.647,511.973 579.5,507.5C 575.623,502.645 572.623,497.312 570.5,491.5C 568.654,489.821 566.988,487.988 565.5,486C 565.645,485.228 565.978,484.561 566.5,484C 564.292,483.064 562.958,481.398 562.5,479C 561.552,478.517 560.552,478.351 559.5,478.5C 559.657,477.127 559.49,475.793 559,474.5C 556.493,472.811 554.993,470.478 554.5,467.5C 551.353,466.291 549.519,463.958 549,460.5C 544.518,457.11 541.351,453.277 539.5,449C 536.966,447.303 534.632,445.303 532.5,443C 531.552,442.517 530.552,442.351 529.5,442.5C 529.261,436.692 526.261,433.359 520.5,432.5C 519.021,428.016 516.021,425.349 511.5,424.5C 511.703,422.61 511.037,421.11 509.5,420C 503.78,414.943 497.78,410.277 491.5,406C 484.64,402.801 478.306,398.801 472.5,394C 470.26,393.023 467.927,392.523 465.5,392.5C 465.719,391.325 465.386,390.325 464.5,389.5C 459.762,387.786 455.095,386.12 450.5,384.5C 450.5,383.5 450.5,382.5 450.5,381.5C 443.202,380.508 436.202,378.508 429.5,375.5C 417.504,374.267 405.504,373.1 393.5,372C 391.167,371 388.833,370 386.5,369C 385.167,367 383.833,365 382.5,363C 379.164,363.002 376.83,361.502 375.5,358.5C 372.425,358.12 369.925,356.787 368,354.5C 366.234,353.767 364.401,353.433 362.5,353.5C 362.64,351.876 361.973,350.71 360.5,350C 351.413,347.133 342.413,343.966 333.5,340.5C 330.964,340.844 328.797,341.844 327,343.5C 326.342,345.8 325.842,348.133 325.5,350.5C 326.38,353.802 327.046,357.135 327.5,360.5C 328.675,360.281 329.675,360.614 330.5,361.5C 331.86,365.05 333.86,368.217 336.5,371C 337.448,371.483 338.448,371.649 339.5,371.5C 339.343,372.873 339.51,374.207 340,375.5C 344.497,380.81 348.331,386.477 351.5,392.5C 352.833,393.167 354.167,393.833 355.5,394.5C 356.731,395.651 356.731,396.817 355.5,398C 357.3,401.093 359.467,403.927 362,406.5C 362.487,409.637 363.654,412.47 365.5,415C 366.216,417.792 366.549,420.626 366.5,423.5C 368.942,423.354 369.609,424.187 368.5,426C 370.853,433.34 373.52,440.673 376.5,448C 375.057,450.078 375.724,450.911 378.5,450.5C 378.714,452.144 378.38,453.644 377.5,455C 379.7,458.091 381.033,461.591 381.5,465.5C 382.5,465.5 383.5,465.5 384.5,465.5C 384.253,468.505 385.253,471.005 387.5,473C 387.167,473.333 386.833,473.667 386.5,474C 388.193,475.713 389.526,477.713 390.5,480C 391.448,480.483 392.448,480.649 393.5,480.5C 393.36,486.026 396.027,489.026 401.5,489.5C 401.991,492.01 402.991,494.344 404.5,496.5C 405.833,501.5 405.833,506.5 404.5,511.5C 403.546,516.006 402.546,520.506 401.5,525C 399.056,528.452 397.056,532.119 395.5,536C 395.957,536.414 396.291,536.914 396.5,537.5C 394.63,544.018 392.964,550.518 391.5,557C 392.833,567 392.833,577 391.5,587C 393.025,593.745 394.692,600.578 396.5,607.5C 396.392,608.442 396.059,609.275 395.5,610C 397.342,613.509 399.342,617.009 401.5,620.5C 401.857,624.118 403.191,627.285 405.5,630C 405.167,630.333 404.833,630.667 404.5,631C 407.103,634.397 410.269,637.231 414,639.5C 415.328,632.436 416.161,625.27 416.5,618C 416.6,615.698 417.267,613.698 418.5,612C 417.892,610.769 417.559,609.436 417.5,608C 418.269,604.344 419.602,601.011 421.5,598C 420.978,597.439 420.645,596.772 420.5,596C 423.169,591.836 425.169,587.336 426.5,582.5C 430.348,580.655 432.681,577.655 433.5,573.5C 436.833,573.5 438.5,571.833 438.5,568.5C 440.167,568.5 441.833,568.5 443.5,568.5C 443.197,571.588 444.53,573.254 447.5,573.5C 446.943,577.634 447.943,581.301 450.5,584.5C 450.392,585.442 450.059,586.275 449.5,587C 451.361,589.874 453.361,592.707 455.5,595.5C 456.481,600.261 458.148,604.761 460.5,609C 466.124,617.323 470.624,625.823 474,634.5C 474.908,636.439 476.408,637.439 478.5,637.5C 479.158,641.817 480.658,645.817 483,649.5C 484.205,650.071 485.372,650.738 486.5,651.5C 485.391,652.965 485.891,653.965 488,654.5C 488.333,655.833 488.667,657.167 489,658.5C 493.745,663.589 497.745,669.255 501,675.5C 504.034,676.801 506.2,678.967 507.5,682C 508.448,682.483 509.448,682.649 510.5,682.5C 510.372,686.585 512.039,689.585 515.5,691.5 Z"/></g>
<g><path style="opacity:0.951" fill="#f3f3f3" d="M 405.5,399.5 C 417.135,398.591 424.969,403.591 429,414.5C 430.529,421.532 429.029,427.699 424.5,433C 422.376,434.582 420.21,434.749 418,433.5C 415.26,423.588 410.427,415.588 403.5,409.5C 401.945,407.057 401.278,404.39 401.5,401.5C 403.483,401.843 404.817,401.176 405.5,399.5 Z"/></g>
<g><path style="opacity:0.181" fill="#494949" d="M 515.5,691.5 C 517.546,693.279 519.713,694.946 522,696.5C 522.475,700.681 520.975,701.514 517.5,699C 515.973,697.968 514.64,696.801 513.5,695.5C 514.806,694.533 515.473,693.199 515.5,691.5 Z"/></g>
<g><path style="opacity:0.004" fill="#666666" d="M 307.5,907.5 C 461.999,906.334 616.666,906.167 771.5,907C 616.834,907.5 462.167,907.667 307.5,907.5 Z"/></g>
</svg>
