<?xml version="1.0" encoding="UTF-8"?>
<!DOCTYPE svg PUBLIC "-//W3C//DTD SVG 1.1//EN" "http://www.w3.org/Graphics/SVG/1.1/DTD/svg11.dtd">
<svg xmlns="http://www.w3.org/2000/svg" version="1.1" width="1080px" height="1080px" style="shape-rendering:geometricPrecision; text-rendering:geometricPrecision; image-rendering:optimizeQuality; fill-rule:evenodd; clip-rule:evenodd" xmlns:xlink="http://www.w3.org/1999/xlink">
<g><path style="opacity:1" fill="#f7f8f7" d="M 518.5,286.5 C 548.413,285.446 578.08,287.613 607.5,293C 631.112,298.949 647.612,313.116 657,335.5C 658.726,341.037 659.726,346.704 660,352.5C 660.667,392.167 660.667,431.833 660,471.5C 657.533,500.294 642.699,519.461 615.5,529C 569.871,530.308 524.204,530.975 478.5,531C 442.472,533.766 418.639,552.266 407,586.5C 406.206,589.471 405.539,592.471 405,595.5C 404.5,617.164 404.333,638.831 404.5,660.5C 386.83,660.667 369.164,660.5 351.5,660C 328.67,654.845 312.836,641.345 304,619.5C 285.454,567.4 284.788,515.066 302,462.5C 313.319,436.189 333.152,420.689 361.5,416C 420.499,415.5 479.499,415.333 538.5,415.5C 538.5,410.5 538.5,405.5 538.5,400.5C 498.5,400.5 458.5,400.5 418.5,400.5C 418.333,380.164 418.5,359.831 419,339.5C 422.284,316.209 435.45,301.709 458.5,296C 478.356,290.999 498.356,287.832 518.5,286.5 Z M 466.5,324.5 C 484.603,324.436 493.436,333.436 493,351.5C 489.941,362.392 482.774,368.392 471.5,369.5C 451.634,365.102 445.467,353.435 453,334.5C 456.579,329.731 461.079,326.397 466.5,324.5 Z"/></g>
<g><path style="opacity:1" fill="#f7f8f7" d="M 674.5,415.5 C 692.836,415.333 711.17,415.5 729.5,416C 742.761,417.934 753.595,424.1 762,434.5C 772.701,450.256 779.701,467.589 783,486.5C 796.269,538.081 790.602,587.415 766,634.5C 758.09,648.403 746.256,656.903 730.5,660C 666.834,660.5 603.168,660.667 539.5,660.5C 539.5,665.5 539.5,670.5 539.5,675.5C 579.833,675.5 620.167,675.5 660.5,675.5C 660.667,691.503 660.5,707.503 660,723.5C 658.883,742.567 650.383,757.4 634.5,768C 612.159,780.668 588.159,788.335 562.5,791C 526.523,795.051 491.856,790.051 458.5,776C 446.361,770.686 436.194,762.852 428,752.5C 424.53,747.226 421.864,741.56 420,735.5C 418.353,689.212 418.02,642.879 419,596.5C 425.059,569.44 441.559,552.607 468.5,546C 513.5,545.667 558.5,545.333 603.5,545C 637.423,540.412 659.923,521.912 671,489.5C 672.836,483.304 673.836,476.97 674,470.5C 674.5,452.17 674.667,433.836 674.5,415.5 Z M 604.5,706.5 C 625.083,709.331 632.25,720.665 626,740.5C 617.093,752.373 606.26,754.54 593.5,747C 581.118,733.926 581.785,721.593 595.5,710C 598.571,708.704 601.571,707.538 604.5,706.5 Z"/></g>
</svg>
