<?xml version="1.0" encoding="UTF-8"?>
<!DOCTYPE svg PUBLIC "-//W3C//DTD SVG 1.1//EN" "http://www.w3.org/Graphics/SVG/1.1/DTD/svg11.dtd">
<svg xmlns="http://www.w3.org/2000/svg" version="1.1" width="1080px" height="1080px" style="shape-rendering:geometricPrecision; text-rendering:geometricPrecision; image-rendering:optimizeQuality; fill-rule:evenodd; clip-rule:evenodd" xmlns:xlink="http://www.w3.org/1999/xlink">
<g><path style="opacity:0.957" fill="#f7f8f7" d="M 652.5,286.5 C 675.048,286.236 691.381,295.57 701.5,314.5C 709.802,334.095 713.802,354.595 713.5,376C 712.409,395.586 710.409,415.086 707.5,434.5C 706.487,437.362 705.487,440.195 704.5,443C 713.589,446.775 722.922,449.942 732.5,452.5C 745.207,458.502 757.874,464.502 770.5,470.5C 778.796,476.321 787.129,482.154 795.5,488C 800,492.5 804.5,497 809,501.5C 812.251,506.373 815.418,511.373 818.5,516.5C 825.094,531.838 825.094,547.171 818.5,562.5C 815.418,567.627 812.251,572.627 809,577.5C 801.787,583.716 794.954,590.216 788.5,597C 763.048,613.887 735.548,626.72 706,635.5C 709.016,650.746 711.516,666.246 713.5,682C 717.09,710.947 713.256,738.78 702,765.5C 699.889,769.011 697.056,772.511 693.5,776C 693.833,776.333 694.167,776.667 694.5,777C 689.632,780.703 684.632,784.203 679.5,787.5C 669.487,791.231 659.153,792.397 648.5,791C 624.836,787.619 603.169,779.453 583.5,766.5C 578.175,764.173 573.175,761.34 568.5,758C 562.16,752.659 555.827,747.326 549.5,742C 545.964,738.799 542.797,735.299 540,731.5C 508.673,766.087 469.506,786.42 422.5,792.5C 403.225,791.709 388.558,783.209 378.5,767C 378.833,766.667 379.167,766.333 379.5,766C 378,765.167 376.833,764 376,762.5C 366.796,736.956 363.629,710.623 366.5,683.5C 368.043,670.652 369.71,657.819 371.5,645C 372.395,641.933 373.395,638.933 374.5,636C 351.736,628.644 329.736,619.477 308.5,608.5C 300.661,602.838 292.661,597.338 284.5,592C 279.667,587.167 274.833,582.333 270,577.5C 266.749,572.627 263.582,567.627 260.5,562.5C 253.833,547.167 253.833,531.833 260.5,516.5C 263.55,510.806 267.05,505.472 271,500.5C 275.167,496.333 279.333,492.167 283.5,488C 310.652,468.341 340.485,453.508 373,443.5C 368.794,420.934 365.961,398.1 364.5,375C 364.986,359.263 367.153,343.763 371,328.5C 375.897,313.045 385.397,300.712 399.5,291.5C 415.943,286.364 432.443,286.364 449,291.5C 483.851,302.366 514.017,320.7 539.5,346.5C 570.368,314.226 608.035,294.226 652.5,286.5 Z M 421.5,314.5 C 431.788,317.114 442.121,319.78 452.5,322.5C 461.427,325.964 470.093,329.964 478.5,334.5C 486.739,340.59 495.073,346.423 503.5,352C 508.732,357.143 513.732,362.476 518.5,368C 501.494,385.379 486.16,404.046 472.5,424C 448.279,426.235 424.446,430.402 401,436.5C 393.452,406.821 391.786,376.488 396,345.5C 397.951,337.569 401.284,329.902 406,322.5C 410.673,318.609 415.839,315.942 421.5,314.5 Z M 652.5,314.5 C 656.56,314.485 660.56,314.985 664.5,316C 665.953,318.114 667.953,319.448 670.5,320C 671.647,322.488 673.314,324.488 675.5,326C 675.167,326.333 674.833,326.667 674.5,327C 675.416,327.374 676.25,327.874 677,328.5C 683.037,342.968 685.87,358.468 685.5,375C 684.921,395.724 682.588,415.891 678.5,435.5C 654.718,430.446 630.718,426.613 606.5,424C 592.254,403.988 576.587,384.988 559.5,367C 584.857,339.899 615.857,322.399 652.5,314.5 Z M 538.5,387.5 C 541.219,390.902 544.386,393.902 548,396.5C 554.036,404.553 560.536,412.386 567.5,420C 548.833,420.667 530.167,420.667 511.5,420C 520.062,408.882 529.062,398.049 538.5,387.5 Z M 529.5,448.5 C 549.851,448.915 570.184,449.748 590.5,451C 609.237,478.988 626.07,507.821 641,537.5C 641.667,538.833 641.667,540.167 641,541.5C 626.274,571.816 609.441,600.65 590.5,628C 556.497,631.333 522.497,631.333 488.5,628C 469.527,600.574 452.694,571.741 438,541.5C 437.879,538.229 439.046,535.395 441.5,533C 441.355,532.228 441.022,531.561 440.5,531C 442.831,527.36 445.164,523.693 447.5,520C 447.167,519.667 446.833,519.333 446.5,519C 453.284,508.608 459.451,497.775 465,486.5C 472.466,474.81 479.799,463.477 487,452.5C 487.5,452 488,451.5 488.5,451C 502.323,450.141 515.989,449.308 529.5,448.5 Z M 446.5,455.5 C 447.873,455.343 449.207,455.51 450.5,456C 440.611,472.278 431.111,488.778 422,505.5C 418.409,495.03 414.909,484.53 411.5,474C 411.095,473.055 410.428,472.388 409.5,472C 410.022,471.439 410.355,470.772 410.5,470C 408.997,468.079 408.331,465.912 408.5,463.5C 421.28,460.781 433.946,458.114 446.5,455.5 Z M 628.5,456.5 C 628.917,455.876 629.584,455.543 630.5,455.5C 643.931,457.757 657.265,460.424 670.5,463.5C 666.969,477.166 662.302,490.832 656.5,504.5C 654.23,500.508 652.563,496.675 651.5,493C 650.584,492.626 649.75,492.126 649,491.5C 643.156,479.179 636.323,467.512 628.5,456.5 Z M 379.5,470.5 C 387.004,494.407 395.67,517.407 405.5,539.5C 400.675,552.241 395.675,564.408 390.5,576C 386.85,586.796 383.35,597.629 380,608.5C 379.612,607.572 378.945,606.905 378,606.5C 363.187,601.785 348.687,596.285 334.5,590C 331.055,587.002 327.055,584.835 322.5,583.5C 320.2,581.219 317.534,579.386 314.5,578C 306.918,571.956 299.418,565.789 292,559.5C 289.676,555.523 287.343,551.523 285,547.5C 281.885,536.451 284.719,527.285 293.5,520C 293.167,519.667 292.833,519.333 292.5,519C 299.84,512.992 307.173,506.992 314.5,501C 330.666,491.419 347.666,483.085 365.5,476C 369.667,474.833 373.833,473.667 378,472.5C 379.03,472.164 379.53,471.497 379.5,470.5 Z M 697.5,470.5 C 720.995,478.175 743.329,488.341 764.5,501C 771.827,506.992 779.16,512.992 786.5,519C 786.167,519.333 785.833,519.667 785.5,520C 798.833,533 798.833,546 785.5,559C 785.833,559.333 786.167,559.667 786.5,560C 779.16,566.008 771.827,572.008 764.5,578C 761.088,579.459 758.088,581.459 755.5,584C 751.231,585.074 747.564,587.074 744.5,590C 734.854,594.55 725.021,598.717 715,602.5C 710.333,603.833 705.667,605.167 701,606.5C 700.055,606.905 699.388,607.572 699,608.5C 691.385,584.501 682.885,561.334 673.5,539C 678.445,526.51 683.445,514.51 688.5,503C 688.355,502.228 688.022,501.561 687.5,501C 688.667,500.5 689.5,499.667 690,498.5C 691.005,493.985 692.505,489.651 694.5,485.5C 695.98,480.581 696.98,475.581 697.5,470.5 Z M 656.5,573.5 C 659.992,584 663.659,594.5 667.5,605C 667.905,605.945 668.572,606.612 669.5,607C 668.941,607.725 668.608,608.558 668.5,609.5C 669.933,611.336 670.433,613.336 670,615.5C 663.12,616.844 656.286,618.511 649.5,620.5C 642.508,621.779 635.508,622.612 628.5,623C 632.664,616.523 636.831,610.023 641,603.5C 646.076,593.425 651.243,583.425 656.5,573.5 Z M 421.5,574.5 C 430.823,590.191 440.489,606.358 450.5,623C 436.366,622.172 422.533,619.672 409,615.5C 408.607,613.801 409.107,612.301 410.5,611C 410.355,610.228 410.022,609.561 409.5,609C 410.516,608.481 411.182,607.647 411.5,606.5C 414.843,595.82 418.176,585.154 421.5,574.5 Z M 677.5,642.5 C 685.835,672.842 687.501,704.009 682.5,736C 680.457,741.129 678.29,746.629 676,752.5C 668.748,763.566 658.748,766.9 646,762.5C 634.835,759.446 624.001,755.613 613.5,751C 593.995,741.463 576.828,728.963 562,713.5C 561.626,712.584 561.126,711.75 560.5,711C 577.505,693.625 592.839,674.958 606.5,655C 630.736,653.175 654.402,649.009 677.5,642.5 Z M 400.5,643.5 C 424.275,648.767 448.275,652.767 472.5,655.5C 477.799,662.314 482.966,669.314 488,676.5C 488.75,677.126 489.584,677.626 490.5,678C 490.167,678.333 489.833,678.667 489.5,679C 491.615,681.2 493.949,683.2 496.5,685C 497.084,687.969 499.084,690.302 502.5,692C 502.167,692.333 501.833,692.667 501.5,693C 507.838,699.005 513.838,705.338 519.5,712C 494.911,738.808 464.578,756.142 428.5,764C 423.362,764.82 418.362,764.32 413.5,762.5C 409.164,759.996 405.664,756.662 403,752.5C 396.122,737.341 392.955,721.008 393.5,703.5C 393.678,688.567 395.345,673.901 398.5,659.5C 398.43,658.228 398.097,657.062 397.5,656C 399.718,652.239 400.718,648.073 400.5,643.5 Z M 511.5,659.5 C 529.995,658.338 548.662,658.171 567.5,659C 559.03,670.283 549.864,681.117 540,691.5C 530.221,680.834 520.721,670.167 511.5,659.5 Z"/></g>
<g><path style="opacity:0.975" fill="#f7f8f7" d="M 535.5,485.5 C 564.999,485.613 583.832,499.28 592,526.5C 595.825,546.218 591.492,563.218 579,577.5C 560.847,593.447 540.181,597.447 517,589.5C 488.729,573.569 479.562,549.402 489.5,517C 498.762,498.471 514.096,487.971 535.5,485.5 Z"/></g>
</svg>
