<?xml version="1.0" encoding="UTF-8"?>
<!DOCTYPE svg PUBLIC "-//W3C//DTD SVG 1.1//EN" "http://www.w3.org/Graphics/SVG/1.1/DTD/svg11.dtd">
<svg xmlns="http://www.w3.org/2000/svg" version="1.1" width="1080px" height="1080px" style="shape-rendering:geometricPrecision; text-rendering:geometricPrecision; image-rendering:optimizeQuality; fill-rule:evenodd; clip-rule:evenodd" xmlns:xlink="http://www.w3.org/1999/xlink">
<g><path style="opacity:1" fill="#f7f8f7" d="M 521.5,387.5 C 562.421,383.059 599.088,393.225 631.5,418C 644.471,429.97 657.138,442.304 669.5,455C 699.544,482.434 731.878,485.434 766.5,464C 776.037,456.13 784.537,447.297 792,437.5C 786.623,469.094 771.79,495.26 747.5,516C 723.109,533.06 695.942,540.893 666,539.5C 626.686,540.746 592.853,527.913 564.5,501C 552.471,488.637 540.138,476.637 527.5,465C 501.455,446.063 474.122,444.063 445.5,459C 432.752,467.08 421.919,477.247 413,489.5C 425.205,429.79 461.371,395.79 521.5,387.5 Z"/></g>
<g><path style="opacity:1" fill="#f7f8f7" d="M 412.5,538.5 C 451.346,538.055 485.013,550.889 513.5,577C 525.862,589.696 538.529,602.03 551.5,614C 582.356,636.171 613.022,635.837 643.5,613C 652.038,606.129 659.538,598.296 666,589.5C 660.398,619.204 646.565,644.371 624.5,665C 604.942,680.525 582.609,689.191 557.5,691C 513.485,696.339 474.818,684.672 441.5,656C 427.439,641.27 412.773,627.27 397.5,614C 366.35,594.762 336.35,596.429 307.5,619C 299.928,625.901 293.095,633.401 287,641.5C 301.589,574.085 343.423,539.752 412.5,538.5 Z"/></g>
</svg>
